<svg xmlns="http://www.w3.org/2000/svg" xmlns:xlink="http://www.w3.org/1999/xlink" width="500" zoomAndPan="magnify" viewBox="0 0 375 374.999991" height="500" preserveAspectRatio="xMidYMid meet" version="1.0"><defs><clipPath id="8869e8e9f8"><path d="M 0 44.0625 L 375 44.0625 L 375 331.3125 L 0 331.3125 Z M 0 44.0625 " clip-rule="nonzero"/></clipPath></defs><path fill="#000000" d="M 112.820312 147.660156 L 151.089844 109.34375 C 150.425781 108.265625 149.726562 107.214844 149.003906 106.183594 L 109.789062 145.445312 Z M 112.820312 147.660156 " fill-opacity="1" fill-rule="nonzero"/><path fill="#000000" d="M 106.332031 142.917969 L 146.4375 102.757812 C 145.65625 101.792969 144.847656 100.867188 144.007812 99.949219 L 103.308594 140.707031 Z M 106.332031 142.917969 " fill-opacity="1" fill-rule="nonzero"/><path fill="#000000" d="M 100.269531 126.519531 L 134.957031 91.789062 C 133.945312 91.046875 132.914062 90.324219 131.859375 89.644531 L 100.273438 121.273438 L 100.273438 126.519531 Z M 100.269531 126.519531 " fill-opacity="1" fill-rule="nonzero"/><path fill="#000000" d="M 100.269531 115.28125 L 128.128906 87.390625 C 126.992188 86.761719 125.835938 86.179688 124.660156 85.621094 L 100.269531 110.039062 Z M 100.269531 115.28125 " fill-opacity="1" fill-rule="nonzero"/><path fill="#000000" d="M 100.269531 104.046875 L 120.480469 83.808594 C 119.207031 83.3125 117.90625 82.875 116.59375 82.460938 L 100.269531 98.804688 Z M 100.269531 104.046875 " fill-opacity="1" fill-rule="nonzero"/><path fill="#000000" d="M 100.269531 92.808594 L 111.882812 81.175781 C 110.433594 80.847656 108.957031 80.582031 107.472656 80.355469 L 100.269531 87.566406 Z M 100.269531 92.808594 " fill-opacity="1" fill-rule="nonzero"/><path fill="#000000" d="M 100.269531 137.753906 L 141.050781 96.921875 C 140.15625 96.0625 139.246094 95.226562 138.300781 94.425781 L 100.269531 132.507812 Z M 100.269531 137.753906 " fill-opacity="1" fill-rule="nonzero"/><path fill="#000000" d="M 102.070312 79.769531 C 101.46875 79.730469 100.871094 79.707031 100.269531 79.683594 L 100.269531 81.578125 Z M 102.070312 79.769531 " fill-opacity="1" fill-rule="nonzero"/><path fill="#000000" d="M 119.308594 152.40625 L 154.964844 116.707031 C 154.433594 115.503906 153.867188 114.320312 153.257812 113.164062 L 116.277344 150.195312 Z M 119.308594 152.40625 " fill-opacity="1" fill-rule="nonzero"/><path fill="#000000" d="M 132.285156 161.902344 L 159.832031 134.320312 C 159.644531 132.792969 159.414062 131.28125 159.121094 129.789062 L 129.265625 159.683594 Z M 132.285156 161.902344 " fill-opacity="1" fill-rule="nonzero"/><path fill="#000000" d="M 125.792969 157.148438 L 157.941406 124.964844 C 157.566406 123.617188 157.152344 122.289062 156.6875 120.980469 L 122.765625 154.945312 Z M 125.792969 157.148438 " fill-opacity="1" fill-rule="nonzero"/><path fill="#000000" d="M 145.257812 171.398438 L 158.023438 158.613281 C 158.636719 156.425781 159.128906 154.179688 159.496094 151.902344 L 142.238281 169.1875 Z M 145.257812 171.398438 " fill-opacity="1" fill-rule="nonzero"/><path fill="#000000" d="M 138.769531 166.652344 L 160.210938 145.183594 C 160.265625 144.101562 160.300781 143.015625 160.300781 141.914062 C 160.300781 141.234375 160.277344 140.566406 160.253906 139.894531 L 135.742188 164.4375 Z M 138.769531 166.652344 " fill-opacity="1" fill-rule="nonzero"/><path fill="#000000" d="M 150.585938 175.285156 C 152.042969 172.996094 153.355469 170.609375 154.511719 168.128906 L 148.726562 173.921875 Z M 150.585938 175.285156 " fill-opacity="1" fill-rule="nonzero"/><g clip-path="url(#8869e8e9f8)"><path fill="#000000" d="M 353.3125 331.054688 L 21.6875 331.054688 C 10.117188 331.054688 0.707031 321.625 0.707031 310.042969 L 0.707031 64.898438 C 0.707031 53.3125 10.121094 43.886719 21.6875 43.886719 L 353.3125 43.886719 C 364.882812 43.886719 374.292969 53.316406 374.292969 64.898438 L 374.292969 310.042969 C 374.296875 321.625 364.882812 331.054688 353.3125 331.054688 Z M 21.6875 52.292969 C 14.746094 52.292969 9.097656 57.945312 9.097656 64.898438 L 9.097656 310.042969 C 9.097656 316.992188 14.746094 322.652344 21.6875 322.652344 L 353.3125 322.652344 C 360.253906 322.652344 365.902344 316.992188 365.902344 310.042969 L 365.902344 64.898438 C 365.902344 57.945312 360.253906 52.292969 353.3125 52.292969 Z M 21.6875 52.292969 " fill-opacity="1" fill-rule="nonzero"/></g><path fill="#000000" d="M 214.574219 126.605469 L 230.683594 126.605469 L 230.683594 179.394531 L 214.574219 179.394531 Z M 214.574219 126.605469 " fill-opacity="1" fill-rule="nonzero"/><path fill="#000000" d="M 239.574219 131.007812 L 255.679688 131.007812 L 255.679688 179.398438 L 239.574219 179.398438 Z M 239.574219 131.007812 " fill-opacity="1" fill-rule="nonzero"/><path fill="#000000" d="M 264.5625 139.808594 L 280.667969 139.808594 L 280.667969 179.398438 L 264.5625 179.398438 Z M 264.5625 139.808594 " fill-opacity="1" fill-rule="nonzero"/><path fill="#000000" d="M 289.554688 117.800781 L 305.660156 117.800781 L 305.660156 179.394531 L 289.554688 179.394531 Z M 289.554688 117.800781 " fill-opacity="1" fill-rule="nonzero"/><path fill="#000000" d="M 314.546875 117.800781 L 330.652344 117.800781 L 330.652344 179.394531 L 314.546875 179.394531 Z M 314.546875 117.800781 " fill-opacity="1" fill-rule="nonzero"/><path fill="#000000" d="M 329.847656 215.558594 L 245.269531 257.167969 L 214.488281 238.511719 L 158.964844 263.78125 L 69.015625 271.730469 L 33.59375 296.9375 L 329.59375 296.9375 Z M 329.847656 215.558594 " fill-opacity="1" fill-rule="nonzero"/><path fill="#000000" d="M 97.988281 204.042969 C 63.683594 204.042969 35.773438 176.101562 35.773438 141.746094 C 35.773438 108.175781 62.425781 80.738281 95.652344 79.503906 L 95.652344 141.132812 L 95.683594 141.132812 L 147.683594 179.179688 C 147.679688 179.179688 147.679688 179.179688 147.679688 179.179688 C 136.324219 194.269531 118.273438 204.042969 97.988281 204.042969 Z M 97.988281 204.042969 " fill-opacity="1" fill-rule="nonzero"/></svg>