<svg xmlns="http://www.w3.org/2000/svg" xmlns:xlink="http://www.w3.org/1999/xlink" width="500" zoomAndPan="magnify" viewBox="0 0 375 374.999991" height="500" preserveAspectRatio="xMidYMid meet" version="1.0"><defs><clipPath id="6f825545e3"><path d="M 16.40625 0 L 358.40625 0 L 358.40625 375 L 16.40625 375 Z M 16.40625 0 " clip-rule="nonzero"/></clipPath></defs><g clip-path="url(#6f825545e3)"><path fill="#000000" d="M 342.121094 65.289062 L 268.835938 65.289062 L 268.835938 53.800781 C 268.832031 52.042969 268.742188 50.292969 268.570312 48.542969 C 268.394531 46.792969 268.136719 45.058594 267.789062 43.332031 C 267.445312 41.609375 267.015625 39.90625 266.507812 38.226562 C 265.996094 36.542969 265.402344 34.890625 264.726562 33.269531 C 264.054688 31.644531 263.304688 30.058594 262.472656 28.507812 C 261.644531 26.960938 260.742188 25.453125 259.765625 23.992188 C 258.789062 22.53125 257.742188 21.121094 256.628906 19.761719 C 255.515625 18.40625 254.335938 17.105469 253.09375 15.859375 C 251.851562 14.617188 250.550781 13.4375 249.195312 12.324219 C 247.835938 11.207031 246.425781 10.164062 244.96875 9.183594 C 243.507812 8.207031 242.003906 7.304688 240.453125 6.476562 C 238.902344 5.644531 237.320312 4.894531 235.695312 4.21875 C 234.074219 3.546875 232.421875 2.953125 230.742188 2.441406 C 229.0625 1.929688 227.359375 1.5 225.636719 1.15625 C 223.914062 0.8125 222.179688 0.550781 220.429688 0.378906 C 218.683594 0.203125 216.929688 0.113281 215.171875 0.113281 L 159.640625 0.113281 C 157.882812 0.113281 156.128906 0.203125 154.382812 0.378906 C 152.632812 0.550781 150.898438 0.8125 149.175781 1.15625 C 147.453125 1.5 145.75 1.929688 144.070312 2.441406 C 142.390625 2.953125 140.738281 3.546875 139.117188 4.21875 C 137.492188 4.894531 135.90625 5.644531 134.359375 6.476562 C 132.808594 7.304688 131.304688 8.207031 129.84375 9.183594 C 128.386719 10.164062 126.976562 11.207031 125.617188 12.324219 C 124.261719 13.4375 122.960938 14.617188 121.71875 15.859375 C 120.476562 17.105469 119.296875 18.40625 118.183594 19.761719 C 117.070312 21.121094 116.023438 22.53125 115.046875 23.992188 C 114.070312 25.453125 113.167969 26.960938 112.335938 28.507812 C 111.507812 30.058594 110.757812 31.644531 110.085938 33.269531 C 109.410156 34.890625 108.816406 36.542969 108.304688 38.226562 C 107.796875 39.90625 107.367188 41.609375 107.023438 43.332031 C 106.675781 45.058594 106.417969 46.792969 106.242188 48.542969 C 106.070312 50.292969 105.980469 52.042969 105.976562 53.800781 L 105.976562 65.289062 L 32.691406 65.289062 C 32.160156 65.289062 31.625 65.316406 31.09375 65.367188 C 30.566406 65.421875 30.039062 65.5 29.515625 65.601562 C 28.992188 65.707031 28.476562 65.835938 27.964844 65.992188 C 27.453125 66.148438 26.953125 66.328125 26.460938 66.53125 C 25.96875 66.734375 25.484375 66.960938 25.015625 67.214844 C 24.542969 67.464844 24.085938 67.738281 23.644531 68.035156 C 23.199219 68.332031 22.773438 68.648438 22.359375 68.988281 C 21.949219 69.328125 21.554688 69.683594 21.175781 70.0625 C 20.800781 70.441406 20.441406 70.835938 20.101562 71.246094 C 19.765625 71.660156 19.445312 72.089844 19.152344 72.53125 C 18.855469 72.976562 18.582031 73.433594 18.328125 73.902344 C 18.078125 74.375 17.851562 74.855469 17.644531 75.347656 C 17.441406 75.84375 17.261719 76.34375 17.109375 76.855469 C 16.953125 77.367188 16.824219 77.882812 16.71875 78.40625 C 16.613281 78.929688 16.535156 79.457031 16.484375 79.988281 C 16.433594 80.519531 16.40625 81.050781 16.40625 81.585938 C 16.40625 82.117188 16.433594 82.652344 16.484375 83.183594 C 16.535156 83.714844 16.613281 84.242188 16.71875 84.765625 C 16.824219 85.289062 16.953125 85.804688 17.109375 86.316406 C 17.261719 86.824219 17.441406 87.328125 17.644531 87.820312 C 17.851562 88.3125 18.078125 88.796875 18.328125 89.265625 C 18.582031 89.738281 18.855469 90.195312 19.152344 90.636719 C 19.445312 91.082031 19.765625 91.507812 20.101562 91.921875 C 20.441406 92.335938 20.800781 92.730469 21.175781 93.105469 C 21.554688 93.484375 21.949219 93.84375 22.359375 94.179688 C 22.773438 94.519531 23.199219 94.835938 23.644531 95.132812 C 24.085938 95.429688 24.542969 95.703125 25.015625 95.957031 C 25.484375 96.207031 25.96875 96.433594 26.460938 96.640625 C 26.953125 96.84375 27.453125 97.023438 27.964844 97.179688 C 28.476562 97.332031 28.992188 97.460938 29.515625 97.566406 C 30.039062 97.671875 30.566406 97.75 31.09375 97.800781 C 31.625 97.851562 32.160156 97.878906 32.691406 97.878906 L 57.121094 97.878906 L 57.121094 320.953125 C 57.125 322.71875 57.210938 324.484375 57.386719 326.242188 C 57.5625 328 57.824219 329.746094 58.171875 331.480469 C 58.519531 333.210938 58.949219 334.925781 59.464844 336.613281 C 59.980469 338.304688 60.574219 339.96875 61.253906 341.597656 C 61.929688 343.230469 62.6875 344.828125 63.523438 346.382812 C 64.355469 347.941406 65.265625 349.457031 66.246094 350.925781 C 67.230469 352.394531 68.28125 353.808594 69.402344 355.175781 C 70.527344 356.539062 71.710938 357.847656 72.960938 359.097656 C 74.210938 360.34375 75.519531 361.53125 76.886719 362.648438 C 78.253906 363.769531 79.671875 364.820312 81.140625 365.800781 C 82.609375 366.78125 84.121094 367.691406 85.679688 368.523438 C 87.238281 369.355469 88.835938 370.109375 90.464844 370.785156 C 92.097656 371.460938 93.761719 372.054688 95.449219 372.566406 C 97.140625 373.078125 98.851562 373.507812 100.585938 373.851562 C 102.316406 374.195312 104.0625 374.457031 105.820312 374.628906 C 107.578125 374.800781 109.339844 374.886719 111.109375 374.886719 L 263.785156 374.886719 C 265.550781 374.886719 267.3125 374.796875 269.066406 374.621094 C 270.824219 374.445312 272.566406 374.183594 274.296875 373.839844 C 276.027344 373.492188 277.738281 373.0625 279.425781 372.546875 C 281.113281 372.035156 282.773438 371.4375 284.402344 370.761719 C 286.03125 370.085938 287.625 369.328125 289.179688 368.496094 C 290.738281 367.664062 292.25 366.753906 293.714844 365.773438 C 295.183594 364.792969 296.597656 363.742188 297.960938 362.621094 C 299.324219 361.5 300.632812 360.316406 301.878906 359.066406 C 303.128906 357.820312 304.3125 356.511719 305.429688 355.148438 C 306.550781 353.78125 307.601562 352.367188 308.582031 350.898438 C 309.5625 349.429688 310.46875 347.917969 311.304688 346.363281 C 312.136719 344.804688 312.890625 343.210938 313.566406 341.582031 C 314.242188 339.949219 314.839844 338.289062 315.351562 336.601562 C 315.867188 334.910156 316.296875 333.199219 316.644531 331.46875 C 316.988281 329.738281 317.25 327.992188 317.425781 326.238281 C 317.601562 324.480469 317.6875 322.71875 317.691406 320.953125 L 317.691406 97.878906 L 342.121094 97.878906 C 342.652344 97.878906 343.1875 97.851562 343.714844 97.800781 C 344.246094 97.75 344.773438 97.671875 345.296875 97.566406 C 345.820312 97.460938 346.335938 97.332031 346.847656 97.179688 C 347.359375 97.023438 347.859375 96.84375 348.351562 96.640625 C 348.84375 96.433594 349.328125 96.207031 349.796875 95.957031 C 350.269531 95.703125 350.726562 95.429688 351.167969 95.132812 C 351.613281 94.835938 352.039062 94.519531 352.453125 94.179688 C 352.863281 93.84375 353.257812 93.484375 353.636719 93.105469 C 354.011719 92.730469 354.371094 92.335938 354.710938 91.921875 C 355.046875 91.507812 355.363281 91.082031 355.660156 90.636719 C 355.957031 90.195312 356.230469 89.738281 356.484375 89.265625 C 356.734375 88.796875 356.960938 88.3125 357.167969 87.820312 C 357.371094 87.328125 357.550781 86.824219 357.703125 86.316406 C 357.859375 85.804688 357.988281 85.289062 358.09375 84.765625 C 358.199219 84.242188 358.277344 83.714844 358.328125 83.183594 C 358.378906 82.652344 358.40625 82.117188 358.40625 81.585938 C 358.40625 81.050781 358.378906 80.519531 358.328125 79.988281 C 358.277344 79.457031 358.199219 78.929688 358.09375 78.40625 C 357.988281 77.882812 357.859375 77.367188 357.703125 76.855469 C 357.550781 76.34375 357.371094 75.84375 357.167969 75.347656 C 356.960938 74.855469 356.734375 74.375 356.484375 73.902344 C 356.230469 73.433594 355.957031 72.976562 355.660156 72.53125 C 355.363281 72.089844 355.046875 71.660156 354.710938 71.246094 C 354.371094 70.835938 354.011719 70.441406 353.636719 70.0625 C 353.257812 69.683594 352.863281 69.328125 352.453125 68.988281 C 352.039062 68.648438 351.613281 68.332031 351.167969 68.035156 C 350.726562 67.738281 350.269531 67.464844 349.796875 67.214844 C 349.328125 66.960938 348.84375 66.734375 348.351562 66.53125 C 347.859375 66.328125 347.359375 66.148438 346.847656 65.992188 C 346.335938 65.835938 345.820312 65.707031 345.296875 65.601562 C 344.773438 65.5 344.246094 65.421875 343.714844 65.367188 C 343.1875 65.316406 342.652344 65.289062 342.121094 65.289062 Z M 138.550781 53.800781 C 138.550781 53.113281 138.582031 52.421875 138.652344 51.734375 C 138.71875 51.046875 138.820312 50.363281 138.953125 49.6875 C 139.089844 49.007812 139.257812 48.339844 139.457031 47.675781 C 139.65625 47.015625 139.890625 46.367188 140.15625 45.726562 C 140.417969 45.089844 140.714844 44.464844 141.039062 43.855469 C 141.363281 43.246094 141.71875 42.652344 142.101562 42.078125 C 142.488281 41.503906 142.898438 40.949219 143.335938 40.414062 C 143.773438 39.882812 144.238281 39.371094 144.726562 38.882812 C 145.214844 38.394531 145.726562 37.929688 146.257812 37.492188 C 146.792969 37.050781 147.347656 36.640625 147.921875 36.257812 C 148.496094 35.875 149.089844 35.519531 149.699219 35.191406 C 150.304688 34.867188 150.929688 34.570312 151.566406 34.308594 C 152.207031 34.042969 152.855469 33.808594 153.515625 33.609375 C 154.179688 33.410156 154.847656 33.242188 155.523438 33.105469 C 156.203125 32.972656 156.882812 32.871094 157.570312 32.800781 C 158.257812 32.734375 158.949219 32.699219 159.640625 32.699219 L 215.171875 32.699219 C 215.863281 32.699219 216.554688 32.734375 217.242188 32.800781 C 217.929688 32.871094 218.609375 32.972656 219.289062 33.105469 C 219.964844 33.242188 220.632812 33.410156 221.296875 33.609375 C 221.957031 33.808594 222.605469 34.042969 223.246094 34.308594 C 223.882812 34.570312 224.507812 34.867188 225.113281 35.191406 C 225.722656 35.519531 226.316406 35.875 226.890625 36.257812 C 227.464844 36.640625 228.019531 37.050781 228.554688 37.492188 C 229.085938 37.929688 229.597656 38.394531 230.085938 38.882812 C 230.574219 39.371094 231.039062 39.882812 231.476562 40.414062 C 231.914062 40.949219 232.324219 41.503906 232.710938 42.078125 C 233.09375 42.652344 233.449219 43.246094 233.773438 43.855469 C 234.097656 44.464844 234.394531 45.089844 234.65625 45.726562 C 234.921875 46.367188 235.15625 47.015625 235.355469 47.675781 C 235.554688 48.339844 235.722656 49.007812 235.859375 49.6875 C 235.992188 50.363281 236.09375 51.046875 236.160156 51.734375 C 236.230469 52.421875 236.261719 53.113281 236.261719 53.800781 L 236.261719 65.289062 L 138.550781 65.289062 Z M 285.121094 320.953125 C 285.117188 321.652344 285.082031 322.347656 285.011719 323.042969 C 284.941406 323.738281 284.835938 324.425781 284.695312 325.113281 C 284.558594 325.796875 284.386719 326.472656 284.183594 327.140625 C 283.980469 327.808594 283.742188 328.464844 283.476562 329.109375 C 283.207031 329.753906 282.90625 330.382812 282.578125 331 C 282.246094 331.613281 281.886719 332.210938 281.5 332.792969 C 281.113281 333.375 280.695312 333.933594 280.253906 334.472656 C 279.808594 335.011719 279.339844 335.53125 278.847656 336.023438 C 278.355469 336.515625 277.839844 336.984375 277.296875 337.429688 C 276.757812 337.871094 276.199219 338.289062 275.621094 338.675781 C 275.039062 339.066406 274.441406 339.425781 273.828125 339.753906 C 273.210938 340.085938 272.582031 340.382812 271.9375 340.652344 C 271.292969 340.921875 270.636719 341.15625 269.96875 341.363281 C 269.304688 341.566406 268.628906 341.738281 267.941406 341.875 C 267.257812 342.015625 266.570312 342.117188 265.875 342.1875 C 265.179688 342.257812 264.484375 342.296875 263.785156 342.300781 L 111.109375 342.300781 C 110.40625 342.300781 109.710938 342.265625 109.011719 342.195312 C 108.316406 342.128906 107.625 342.027344 106.941406 341.890625 C 106.253906 341.753906 105.574219 341.582031 104.90625 341.382812 C 104.234375 341.179688 103.578125 340.941406 102.929688 340.675781 C 102.285156 340.410156 101.652344 340.109375 101.035156 339.78125 C 100.417969 339.453125 99.816406 339.09375 99.234375 338.703125 C 98.652344 338.316406 98.089844 337.902344 97.550781 337.457031 C 97.007812 337.015625 96.488281 336.546875 95.992188 336.050781 C 95.496094 335.558594 95.027344 335.039062 94.582031 334.5 C 94.136719 333.960938 93.71875 333.398438 93.328125 332.820312 C 92.9375 332.238281 92.578125 331.636719 92.246094 331.023438 C 91.914062 330.40625 91.613281 329.773438 91.34375 329.128906 C 91.074219 328.480469 90.839844 327.824219 90.632812 327.15625 C 90.429688 326.484375 90.257812 325.808594 90.117188 325.121094 C 89.980469 324.4375 89.875 323.746094 89.800781 323.046875 C 89.730469 322.351562 89.695312 321.652344 89.691406 320.953125 L 89.691406 97.878906 L 285.121094 97.878906 Z M 285.121094 320.953125 " fill-opacity="1" fill-rule="nonzero"/></g><path fill="#000000" d="M 146.691406 134.460938 C 146.160156 134.460938 145.625 134.488281 145.09375 134.539062 C 144.566406 134.589844 144.039062 134.671875 143.515625 134.773438 C 142.992188 134.878906 142.476562 135.007812 141.964844 135.164062 C 141.453125 135.316406 140.953125 135.496094 140.460938 135.703125 C 139.96875 135.90625 139.484375 136.132812 139.015625 136.386719 C 138.542969 136.636719 138.085938 136.910156 137.644531 137.207031 C 137.199219 137.503906 136.773438 137.820312 136.359375 138.160156 C 135.949219 138.5 135.554688 138.855469 135.175781 139.234375 C 134.800781 139.609375 134.441406 140.003906 134.101562 140.417969 C 133.765625 140.832031 133.445312 141.257812 133.152344 141.703125 C 132.855469 142.148438 132.582031 142.605469 132.328125 143.074219 C 132.078125 143.546875 131.851562 144.027344 131.644531 144.519531 C 131.441406 145.011719 131.261719 145.515625 131.109375 146.027344 C 130.953125 146.535156 130.824219 147.054688 130.71875 147.578125 C 130.613281 148.101562 130.535156 148.628906 130.484375 149.160156 C 130.433594 149.691406 130.40625 150.222656 130.40625 150.753906 L 130.40625 297.40625 C 130.40625 297.941406 130.433594 298.472656 130.484375 299.003906 C 130.535156 299.535156 130.613281 300.0625 130.71875 300.585938 C 130.824219 301.109375 130.953125 301.625 131.109375 302.136719 C 131.261719 302.648438 131.441406 303.148438 131.644531 303.644531 C 131.851562 304.136719 132.078125 304.617188 132.328125 305.089844 C 132.582031 305.558594 132.855469 306.015625 133.152344 306.460938 C 133.445312 306.902344 133.765625 307.332031 134.101562 307.746094 C 134.441406 308.15625 134.800781 308.550781 135.175781 308.929688 C 135.554688 309.308594 135.949219 309.664062 136.359375 310.003906 C 136.773438 310.339844 137.199219 310.660156 137.644531 310.957031 C 138.085938 311.253906 138.542969 311.527344 139.015625 311.777344 C 139.484375 312.03125 139.96875 312.257812 140.460938 312.460938 C 140.953125 312.664062 141.453125 312.84375 141.964844 313 C 142.476562 313.15625 142.992188 313.285156 143.515625 313.390625 C 144.039062 313.492188 144.566406 313.570312 145.09375 313.625 C 145.625 313.675781 146.160156 313.703125 146.691406 313.703125 C 147.226562 313.703125 147.757812 313.675781 148.289062 313.625 C 148.820312 313.570312 149.347656 313.492188 149.871094 313.390625 C 150.390625 313.285156 150.910156 313.15625 151.417969 313 C 151.929688 312.84375 152.429688 312.664062 152.925781 312.460938 C 153.417969 312.257812 153.898438 312.03125 154.367188 311.777344 C 154.839844 311.527344 155.296875 311.253906 155.738281 310.957031 C 156.183594 310.660156 156.609375 310.339844 157.023438 310.003906 C 157.4375 309.664062 157.832031 309.308594 158.207031 308.929688 C 158.585938 308.550781 158.941406 308.15625 159.28125 307.746094 C 159.621094 307.332031 159.9375 306.902344 160.234375 306.460938 C 160.53125 306.015625 160.804688 305.558594 161.054688 305.089844 C 161.304688 304.617188 161.535156 304.136719 161.738281 303.644531 C 161.941406 303.148438 162.121094 302.648438 162.277344 302.136719 C 162.429688 301.625 162.5625 301.109375 162.664062 300.585938 C 162.769531 300.0625 162.847656 299.535156 162.898438 299.003906 C 162.953125 298.472656 162.976562 297.941406 162.976562 297.40625 L 162.976562 150.753906 C 162.976562 150.222656 162.953125 149.691406 162.898438 149.160156 C 162.847656 148.628906 162.769531 148.101562 162.664062 147.578125 C 162.5625 147.054688 162.429688 146.535156 162.277344 146.027344 C 162.121094 145.515625 161.941406 145.011719 161.738281 144.519531 C 161.535156 144.027344 161.304688 143.546875 161.054688 143.074219 C 160.804688 142.605469 160.53125 142.144531 160.234375 141.703125 C 159.9375 141.257812 159.621094 140.832031 159.28125 140.417969 C 158.941406 140.003906 158.585938 139.609375 158.207031 139.234375 C 157.832031 138.855469 157.4375 138.5 157.023438 138.160156 C 156.609375 137.820312 156.183594 137.503906 155.738281 137.207031 C 155.296875 136.910156 154.839844 136.636719 154.367188 136.386719 C 153.898438 136.132812 153.417969 135.90625 152.925781 135.703125 C 152.429688 135.496094 151.929688 135.316406 151.417969 135.164062 C 150.910156 135.007812 150.390625 134.878906 149.871094 134.773438 C 149.347656 134.667969 148.820312 134.589844 148.289062 134.539062 C 147.757812 134.488281 147.226562 134.460938 146.691406 134.460938 Z M 146.691406 134.460938 " fill-opacity="1" fill-rule="nonzero"/><path fill="#000000" d="M 228.121094 134.460938 C 227.585938 134.460938 227.054688 134.488281 226.523438 134.539062 C 225.992188 134.589844 225.464844 134.671875 224.941406 134.773438 C 224.421875 134.878906 223.902344 135.007812 223.394531 135.164062 C 222.882812 135.316406 222.382812 135.496094 221.886719 135.703125 C 221.394531 135.90625 220.914062 136.132812 220.445312 136.386719 C 219.972656 136.636719 219.515625 136.910156 219.074219 137.207031 C 218.628906 137.503906 218.203125 137.820312 217.789062 138.160156 C 217.375 138.5 216.980469 138.855469 216.605469 139.234375 C 216.226562 139.609375 215.871094 140.003906 215.53125 140.417969 C 215.191406 140.832031 214.875 141.257812 214.578125 141.703125 C 214.28125 142.148438 214.007812 142.605469 213.757812 143.074219 C 213.507812 143.546875 213.277344 144.027344 213.074219 144.519531 C 212.871094 145.011719 212.691406 145.515625 212.535156 146.027344 C 212.382812 146.535156 212.25 147.054688 212.148438 147.578125 C 212.042969 148.101562 211.964844 148.628906 211.914062 149.160156 C 211.859375 149.691406 211.835938 150.222656 211.835938 150.753906 L 211.835938 297.40625 C 211.835938 297.941406 211.859375 298.472656 211.914062 299.003906 C 211.964844 299.535156 212.042969 300.0625 212.148438 300.585938 C 212.25 301.109375 212.382812 301.625 212.535156 302.136719 C 212.691406 302.648438 212.871094 303.148438 213.074219 303.644531 C 213.277344 304.136719 213.507812 304.617188 213.757812 305.089844 C 214.007812 305.558594 214.28125 306.015625 214.578125 306.460938 C 214.875 306.902344 215.191406 307.332031 215.53125 307.746094 C 215.871094 308.15625 216.226562 308.550781 216.605469 308.929688 C 216.980469 309.308594 217.375 309.664062 217.789062 310.003906 C 218.203125 310.339844 218.628906 310.660156 219.074219 310.957031 C 219.515625 311.253906 219.972656 311.527344 220.445312 311.777344 C 220.914062 312.03125 221.394531 312.257812 221.886719 312.460938 C 222.382812 312.664062 222.882812 312.84375 223.394531 313 C 223.902344 313.15625 224.421875 313.285156 224.941406 313.390625 C 225.464844 313.492188 225.992188 313.570312 226.523438 313.625 C 227.054688 313.675781 227.585938 313.703125 228.121094 313.703125 C 228.652344 313.703125 229.1875 313.675781 229.71875 313.625 C 230.246094 313.570312 230.773438 313.492188 231.296875 313.390625 C 231.820312 313.285156 232.335938 313.15625 232.847656 313 C 233.359375 312.84375 233.859375 312.664062 234.351562 312.460938 C 234.84375 312.257812 235.328125 312.03125 235.796875 311.777344 C 236.269531 311.527344 236.726562 311.253906 237.167969 310.957031 C 237.613281 310.660156 238.039062 310.339844 238.453125 310.003906 C 238.863281 309.664062 239.257812 309.308594 239.636719 308.929688 C 240.011719 308.550781 240.371094 308.15625 240.710938 307.746094 C 241.046875 307.332031 241.367188 306.902344 241.660156 306.460938 C 241.957031 306.015625 242.230469 305.558594 242.484375 305.089844 C 242.734375 304.617188 242.960938 304.136719 243.167969 303.644531 C 243.371094 303.148438 243.550781 302.648438 243.703125 302.136719 C 243.859375 301.625 243.988281 301.109375 244.09375 300.585938 C 244.199219 300.0625 244.277344 299.535156 244.328125 299.003906 C 244.378906 298.472656 244.40625 297.941406 244.40625 297.40625 L 244.40625 150.753906 C 244.40625 150.222656 244.378906 149.691406 244.328125 149.160156 C 244.277344 148.628906 244.199219 148.101562 244.09375 147.578125 C 243.988281 147.054688 243.859375 146.535156 243.703125 146.027344 C 243.550781 145.515625 243.371094 145.011719 243.167969 144.519531 C 242.960938 144.027344 242.734375 143.546875 242.484375 143.074219 C 242.230469 142.605469 241.957031 142.144531 241.660156 141.703125 C 241.367188 141.257812 241.046875 140.832031 240.710938 140.417969 C 240.371094 140.003906 240.011719 139.609375 239.636719 139.234375 C 239.257812 138.855469 238.863281 138.5 238.453125 138.160156 C 238.039062 137.820312 237.613281 137.503906 237.167969 137.207031 C 236.726562 136.910156 236.269531 136.636719 235.796875 136.386719 C 235.328125 136.132812 234.84375 135.90625 234.351562 135.703125 C 233.859375 135.496094 233.359375 135.316406 232.847656 135.164062 C 232.335938 135.007812 231.820312 134.878906 231.296875 134.773438 C 230.773438 134.667969 230.246094 134.589844 229.71875 134.539062 C 229.1875 134.488281 228.652344 134.460938 228.121094 134.460938 Z M 228.121094 134.460938 " fill-opacity="1" fill-rule="nonzero"/></svg>