<svg xmlns="http://www.w3.org/2000/svg" xmlns:xlink="http://www.w3.org/1999/xlink" width="500" zoomAndPan="magnify" viewBox="0 0 375 374.999991" height="500" preserveAspectRatio="xMidYMid meet" version="1.0"><defs><clipPath id="c04db0929d"><path d="M 0 21.5625 L 375 21.5625 L 375 353.8125 L 0 353.8125 Z M 0 21.5625 " clip-rule="nonzero"/></clipPath></defs><g clip-path="url(#c04db0929d)"><path fill="#000000" d="M 363.136719 182.371094 L 264.964844 182.371094 L 264.964844 193.015625 L 363.136719 193.015625 Z M 352.078125 166.882812 L 276.027344 166.882812 L 276.027344 177.53125 L 352.078125 177.53125 Z M 352.078125 197.855469 L 276.027344 197.855469 L 276.027344 208.503906 L 352.078125 208.503906 Z M 110.074219 182.371094 L 11.902344 182.371094 L 11.902344 193.015625 L 110.074219 193.015625 Z M 99.011719 166.882812 L 22.964844 166.882812 L 22.964844 177.53125 L 99.011719 177.53125 Z M 99.011719 197.855469 L 22.964844 197.855469 L 22.964844 208.503906 L 99.011719 208.503906 Z M 272.78125 283.109375 C 277.5625 293.164062 276.367188 304.148438 269.1875 309.632812 C 263.265625 314.15625 254.816406 313.769531 247.3125 309.417969 C 237.027344 305.734375 224.027344 287.554688 216.253906 275.785156 L 187.519531 229.6875 L 158.78125 275.785156 C 151.007812 287.554688 138.015625 305.734375 127.726562 309.417969 C 120.222656 313.769531 111.773438 314.15625 105.851562 309.632812 C 98.671875 304.148438 97.472656 293.164062 102.253906 283.109375 C 106.058594 272.550781 117.027344 259.070312 125.355469 250.242188 L 170.109375 201.757812 L 153.03125 174.363281 C 153.03125 174.363281 132.753906 174.425781 130.292969 172.109375 C 127.832031 169.792969 73.066406 88.339844 73.066406 88.339844 L 75.496094 86.484375 L 124.039062 147.507812 C 124.039062 147.507812 126.449219 150.707031 129.390625 148.445312 C 131.429688 146.882812 131.582031 145.5625 129.769531 142.9375 C 127.957031 140.320312 82.558594 81.085938 82.558594 81.085938 L 85.855469 78.566406 L 134.519531 139.601562 C 134.519531 139.601562 136.339844 142.167969 138.785156 140.710938 C 139.046875 140.554688 139.253906 140.421875 139.417969 140.3125 C 139.566406 140.183594 139.75 140.015625 139.96875 139.804688 C 142.019531 137.828125 140.027344 135.390625 140.027344 135.390625 L 94.054688 72.304688 L 97.289062 69.828125 C 97.289062 69.828125 142.445312 129.242188 144.496094 131.6875 C 146.542969 134.128906 147.855469 134.328125 149.902344 132.773438 C 152.855469 130.527344 150.40625 127.355469 150.40625 127.355469 L 104.414062 64.386719 L 106.84375 62.53125 C 106.84375 62.53125 170.878906 136.898438 172.460938 139.886719 C 174.046875 142.867188 168.636719 162.4375 168.636719 162.4375 L 187.519531 182.894531 L 206.402344 162.4375 C 206.402344 162.4375 200.992188 142.867188 202.574219 139.886719 C 204.160156 136.898438 268.191406 62.53125 268.191406 62.53125 L 270.625 64.386719 L 224.632812 127.355469 C 224.632812 127.355469 222.183594 130.527344 225.136719 132.773438 C 227.183594 134.328125 228.496094 134.128906 230.542969 131.6875 C 232.59375 129.242188 277.75 69.828125 277.75 69.828125 L 280.988281 72.304688 L 235.015625 135.390625 C 235.015625 135.390625 233.019531 137.828125 235.070312 139.804688 C 235.292969 140.015625 235.46875 140.183594 235.617188 140.3125 C 235.785156 140.421875 235.992188 140.554688 236.253906 140.710938 C 238.699219 142.167969 240.519531 139.601562 240.519531 139.601562 L 289.183594 78.566406 L 292.480469 81.085938 C 292.480469 81.085938 247.082031 140.320312 245.269531 142.9375 C 243.457031 145.5625 243.613281 146.882812 245.648438 148.445312 C 248.589844 150.707031 251 147.507812 251 147.507812 L 299.542969 86.484375 L 301.972656 88.339844 C 301.972656 88.339844 247.207031 169.792969 244.746094 172.109375 C 242.285156 174.425781 222.007812 174.363281 222.007812 174.363281 L 204.929688 201.757812 L 249.683594 250.242188 C 258.011719 259.070312 268.984375 272.550781 272.78125 283.109375 Z M 6.601562 276.46875 L 187.554688 346.710938 L 368.4375 280.539062 L 368.4375 100.640625 L 192.117188 28.6875 L 6.601562 96.613281 Z M 187.484375 353.757812 L 0.015625 280.988281 L 0.015625 92.003906 L 192.246094 21.617188 L 375.023438 96.207031 L 375.023438 285.152344 L 187.484375 353.757812 " fill-opacity="1" fill-rule="nonzero"/></g></svg>